<svg width="36" height="35" viewBox="0 0 36 35" fill="none" xmlns="http://www.w3.org/2000/svg">
<path d="M16.6665 11.75H19.6665C19.6665 11.3522 19.5085 10.9706 19.2272 10.6893C18.9459 10.408 18.5643 10.25 18.1665 10.25C17.7687 10.25 17.3871 10.408 17.1058 10.6893C16.8245 10.9706 16.6665 11.3522 16.6665 11.75ZM15.6665 11.75C15.6665 11.087 15.9299 10.4511 16.3987 9.98223C16.8676 9.51339 17.5035 9.25 18.1665 9.25C18.8295 9.25 19.4654 9.51339 19.9343 9.98223C20.4031 10.4511 20.6665 11.087 20.6665 11.75H25.6665C25.7991 11.75 25.9263 11.8027 26.0201 11.8964C26.1138 11.9902 26.1665 12.1174 26.1665 12.25C26.1665 12.3826 26.1138 12.5098 26.0201 12.6036C25.9263 12.6973 25.7991 12.75 25.6665 12.75H24.6125L23.4185 23.094C23.3341 23.8252 22.9838 24.4998 22.4344 24.9896C21.8849 25.4793 21.1746 25.7499 20.4385 25.75H15.8945C15.1585 25.7499 14.4481 25.4793 13.8986 24.9896C13.3492 24.4998 12.9989 23.8252 12.9145 23.094L11.7205 12.75H10.6665C10.5339 12.75 10.4067 12.6973 10.313 12.6036C10.2192 12.5098 10.1665 12.3826 10.1665 12.25C10.1665 12.1174 10.2192 11.9902 10.313 11.8964C10.4067 11.8027 10.5339 11.75 10.6665 11.75H15.6665ZM13.9075 22.98C13.9639 23.4674 14.1975 23.917 14.5639 24.2434C14.9303 24.5698 15.4039 24.7501 15.8945 24.75H20.4385C20.9292 24.7501 21.4027 24.5698 21.7691 24.2434C22.1355 23.917 22.3691 23.4674 22.4255 22.98L23.6055 12.75H12.7275L13.9075 22.98ZM16.6665 15.25C16.7991 15.25 16.9263 15.3027 17.0201 15.3964C17.1138 15.4902 17.1665 15.6174 17.1665 15.75V21.75C17.1665 21.8826 17.1138 22.0098 17.0201 22.1036C16.9263 22.1973 16.7991 22.25 16.6665 22.25C16.5339 22.25 16.4067 22.1973 16.313 22.1036C16.2192 22.0098 16.1665 21.8826 16.1665 21.75V15.75C16.1665 15.6174 16.2192 15.4902 16.313 15.3964C16.4067 15.3027 16.5339 15.25 16.6665 15.25ZM20.1665 15.75C20.1665 15.6174 20.1138 15.4902 20.0201 15.3964C19.9263 15.3027 19.7991 15.25 19.6665 15.25C19.5339 15.25 19.4067 15.3027 19.313 15.3964C19.2192 15.4902 19.1665 15.6174 19.1665 15.75V21.75C19.1665 21.8826 19.2192 22.0098 19.313 22.1036C19.4067 22.1973 19.5339 22.25 19.6665 22.25C19.7991 22.25 19.9263 22.1973 20.0201 22.1036C20.1138 22.0098 20.1665 21.8826 20.1665 21.75V15.75Z" fill="#1D4945"></path>
<rect x="1.5015" y="0.835" width="33.33" height="33.33" rx="16.665" stroke="#1D4945" stroke-width="1.67"></rect>
</svg>